<svg xmlns="http://www.w3.org/2000/svg" viewBox="0 0 320 140"><defs><style>.cls-1{fill:#222;}.cls-2{fill:#fff;}</style></defs><g id="Layer_2" data-name="Layer 2"><g id="Logo"><path class="cls-1" d="M25,140V130a15,15,0,0,0-15-15H0V25H10A15,15,0,0,0,25,10V0H295V10a15,15,0,0,0,15,15h10v90H310a15,15,0,0,0-15,15v10Z"/><path class="cls-2" d="M310,32.5A22.52,22.52,0,0,1,287.5,10V7.5H32.5V10A22.52,22.52,0,0,1,10,32.5H7.5v75H10A22.52,22.52,0,0,1,32.5,130v2.5h255V130A22.52,22.52,0,0,1,310,107.5h2.5v-75Zm-2.5,70.11a27.55,27.55,0,0,0-24.89,24.89H37.39A27.55,27.55,0,0,0,12.5,102.61V37.39A27.55,27.55,0,0,0,37.39,12.5H282.61A27.55,27.55,0,0,0,307.5,37.39Z"/><path class="cls-2" d="M90.25,28.16v7.59H84.39V66.11H74.52V35.75H68.69V28.16Z"/><path class="cls-2" d="M101.69,28.16V36.7A8.42,8.42,0,0,1,104.32,35a8.1,8.1,0,0,1,3-.57,7,7,0,0,1,4.23,1.27,5.07,5.07,0,0,1,2.13,2.91,31,31,0,0,1,.39,6V66.11h-9.47V44.21a13.61,13.61,0,0,0-.27-3.49,1.29,1.29,0,0,0-2.38,0,10.66,10.66,0,0,0-.3,3.16v22.2H92.22V28.16Z"/><path class="cls-2" d="M138.81,51.11H126.55v6.72a7.51,7.51,0,0,0,.31,2.72,1.17,1.17,0,0,0,1.17.61,1.42,1.42,0,0,0,1.44-.81,8.85,8.85,0,0,0,.37-3.13v-4.1h9v2.3a20.76,20.76,0,0,1-.36,4.43,9,9,0,0,1-1.7,3.3,8.32,8.32,0,0,1-3.39,2.64,13.18,13.18,0,0,1-5.14.88,14.91,14.91,0,0,1-5.3-.87,8.46,8.46,0,0,1-3.57-2.38,8.67,8.67,0,0,1-1.77-3.33,21.38,21.38,0,0,1-.49-5.28V45.74a15.38,15.38,0,0,1,1.1-6.44,7.47,7.47,0,0,1,3.61-3.6,12.65,12.65,0,0,1,5.76-1.26A13,13,0,0,1,134.14,36a8.4,8.4,0,0,1,3.63,4,18.88,18.88,0,0,1,1,7ZM129.32,46V43.77a11.54,11.54,0,0,0-.26-3.12A1,1,0,0,0,128,40c-.66,0-1.06.2-1.22.6a12.15,12.15,0,0,0-.24,3.22V46Z"/><path class="cls-2" d="M90.41,81H81.25V78.14a5.58,5.58,0,0,0-.35-2.51,1.3,1.3,0,0,0-1.17-.54,1.48,1.48,0,0,0-1.35.73,4.15,4.15,0,0,0-.46,2.2,6.12,6.12,0,0,0,.52,2.86,7.32,7.32,0,0,0,2.78,2.32q6.6,3.92,8.3,6.42t1.71,8.09a14.23,14.23,0,0,1-.94,6,7.47,7.47,0,0,1-3.67,3.23,14.63,14.63,0,0,1-6.33,1.3,14.12,14.12,0,0,1-6.76-1.5,7.38,7.38,0,0,1-3.67-3.82A19.58,19.58,0,0,1,69,96.3V93.82h9.17v4.61a6.26,6.26,0,0,0,.38,2.75,1.52,1.52,0,0,0,1.37.61,1.61,1.61,0,0,0,1.47-.78,4.39,4.39,0,0,0,.48-2.29c0-2.24-.31-3.7-.91-4.39a29.59,29.59,0,0,0-4.62-3.44,47.75,47.75,0,0,1-4.88-3.54,8.49,8.49,0,0,1-2-3,13.49,13.49,0,0,1-.78-5c0-2.9.37-5,1.11-6.37a7.46,7.46,0,0,1,3.6-3.16,14.44,14.44,0,0,1,6-1.13A15.62,15.62,0,0,1,86,69.91,6.9,6.9,0,0,1,89.54,73a16.71,16.71,0,0,1,.87,6.41Z"/><path class="cls-2" d="M103.52,69.46V78a8.61,8.61,0,0,1,2.63-1.69,8.09,8.09,0,0,1,3-.56A7.06,7.06,0,0,1,113.42,77a5.12,5.12,0,0,1,2.13,2.92,30.81,30.81,0,0,1,.39,6v21.44h-9.47V85.52A13.56,13.56,0,0,0,106.2,82a1.29,1.29,0,0,0-2.38,0,10.74,10.74,0,0,0-.3,3.17v22.19H94.05V69.46Z"/><path class="cls-2" d="M140.62,87.23v7.62a32.27,32.27,0,0,1-.42,6.15,8.86,8.86,0,0,1-1.81,3.66,8,8,0,0,1-3.55,2.5,14.21,14.21,0,0,1-5,.81,17.8,17.8,0,0,1-5.32-.69,7.29,7.29,0,0,1-3.39-2.08,8.27,8.27,0,0,1-1.72-3.38,25.52,25.52,0,0,1-.52-5.94v-8a19.57,19.57,0,0,1,.94-6.77,7.81,7.81,0,0,1,3.38-3.92,11.9,11.9,0,0,1,6.23-1.47,14.06,14.06,0,0,1,5.47,1,8.69,8.69,0,0,1,3.53,2.47,8.59,8.59,0,0,1,1.7,3.14A19.73,19.73,0,0,1,140.62,87.23Zm-9.47-2.34a10.31,10.31,0,0,0-.26-3,1.06,1.06,0,0,0-1.1-.63,1.12,1.12,0,0,0-1.13.63,9.7,9.7,0,0,0-.28,3v14a9.4,9.4,0,0,0,.28,2.87,1.28,1.28,0,0,0,2.22.06,8,8,0,0,0,.27-2.63Z"/><path class="cls-2" d="M153.37,76.31l-.17,2.75A9,9,0,0,1,156,76.57a6.9,6.9,0,0,1,3.33-.82,6.23,6.23,0,0,1,3.81,1.18,4.93,4.93,0,0,1,2,2.73,23.49,23.49,0,0,1,.4,5.25V98a25.49,25.49,0,0,1-.5,6,5.06,5.06,0,0,1-2.07,2.86A6.48,6.48,0,0,1,159.2,108a6.62,6.62,0,0,1-3.25-.82,8.92,8.92,0,0,1-2.75-2.44v7.13h-9.47V76.31Zm2.69,9a16,16,0,0,0-.21-3.5c-.14-.4-.53-.61-1.17-.61a1.15,1.15,0,0,0-1.21.71,12.55,12.55,0,0,0-.27,3.4V98.25a13,13,0,0,0,.28,3.51,1.18,1.18,0,0,0,1.22.71,1.06,1.06,0,0,0,1.14-.65,12.79,12.79,0,0,0,.22-3.13Z"/><path class="cls-2" d="M178.28,76.31l-.16,2.75a8.75,8.75,0,0,1,2.79-2.49,6.83,6.83,0,0,1,3.32-.82A6.23,6.23,0,0,1,188,76.93a5,5,0,0,1,2,2.73,24.12,24.12,0,0,1,.4,5.25V98a24.83,24.83,0,0,1-.51,6,5,5,0,0,1-2.06,2.86,6.5,6.5,0,0,1-3.76,1.06,6.66,6.66,0,0,1-3.26-.82,8.89,8.89,0,0,1-2.74-2.44v7.13h-9.47V76.31Zm2.7,9a16,16,0,0,0-.21-3.5c-.15-.4-.54-.61-1.18-.61a1.14,1.14,0,0,0-1.2.71,12.55,12.55,0,0,0-.27,3.4V98.25a12.62,12.62,0,0,0,.28,3.51,1.17,1.17,0,0,0,1.22.71c.61,0,1-.22,1.13-.65a12.59,12.59,0,0,0,.23-3.13Z"/><path class="cls-2" d="M203.31,76.31v31.1h-9.75V76.31Z"/><path class="cls-2" d="M228.16,92.41H215.9v6.73a7.62,7.62,0,0,0,.3,2.72,1.21,1.21,0,0,0,1.18.61,1.43,1.43,0,0,0,1.44-.81,9,9,0,0,0,.36-3.13v-4.1h9v2.29a20,20,0,0,1-.37,4.43,9,9,0,0,1-1.7,3.31,8.25,8.25,0,0,1-3.38,2.63,13.08,13.08,0,0,1-5.15.88,15.09,15.09,0,0,1-5.29-.86,8.53,8.53,0,0,1-3.58-2.38,8.67,8.67,0,0,1-1.77-3.33,21.41,21.41,0,0,1-.49-5.29V87a15.5,15.5,0,0,1,1.1-6.43A7.62,7.62,0,0,1,211.14,77a12.66,12.66,0,0,1,5.77-1.25,12.88,12.88,0,0,1,6.57,1.51,8.25,8.25,0,0,1,3.63,4,18.65,18.65,0,0,1,1,7Zm-9.5-5.06V85.07a11.64,11.64,0,0,0-.25-3.11,1,1,0,0,0-1.06-.71c-.65,0-1.06.2-1.22.6a12.83,12.83,0,0,0-.23,3.22v2.28Z"/><path class="cls-2" d="M250.59,86.25H242.2V84.56a9,9,0,0,0-.25-2.73c-.16-.38-.57-.58-1.23-.58a1.43,1.43,0,0,0-1.2.53,2.64,2.64,0,0,0-.4,1.58,8.07,8.07,0,0,0,.2,2.1,3.45,3.45,0,0,0,1.2,1.47,26.41,26.41,0,0,0,4.09,2.32c2.75,1.34,4.55,2.61,5.41,3.79a8.78,8.78,0,0,1,1.29,5.18,13.15,13.15,0,0,1-1,5.73,6.61,6.61,0,0,1-3.29,3,13.41,13.41,0,0,1-5.57,1,15.34,15.34,0,0,1-6.18-1.12,6.74,6.74,0,0,1-3.52-3,13.36,13.36,0,0,1-1-5.81v-1.5h8.4v2a10.48,10.48,0,0,0,.31,3.26,1.23,1.23,0,0,0,1.26.75,1.67,1.67,0,0,0,1.4-.51,3.7,3.7,0,0,0,.4-2.12,4.68,4.68,0,0,0-.52-2.79,44,44,0,0,0-5.5-3.33q-4.17-2.34-5.09-4.25a10.42,10.42,0,0,1-.91-4.54,11.82,11.82,0,0,1,1-5.49,6.4,6.4,0,0,1,3.34-2.73,14.44,14.44,0,0,1,5.47-1,15.66,15.66,0,0,1,5.27.78,8,8,0,0,1,3.32,2.08A5.45,5.45,0,0,1,250.34,81a17.52,17.52,0,0,1,.25,3.44Z"/><polygon class="cls-2" points="169.81 37.45 172.88 43.68 179.76 44.68 174.78 49.54 175.96 56.39 169.81 53.15 163.65 56.39 164.83 49.54 159.85 44.68 166.73 43.68 169.81 37.45"/><polygon class="cls-2" points="198.44 51.45 201.51 57.68 208.39 58.68 203.42 63.54 204.59 70.39 198.44 67.15 192.28 70.39 193.46 63.54 188.48 58.68 195.36 57.68 198.44 51.45"/><polygon class="cls-2" points="227.07 37.45 230.15 43.68 237.03 44.68 232.05 49.54 233.22 56.39 227.07 53.15 220.92 56.39 222.09 49.54 217.11 44.68 223.99 43.68 227.07 37.45"/></g></g></svg>