<svg xmlns="http://www.w3.org/2000/svg" width="1400" height="200" viewBox="0 0 1400 200"><path d="M287.24,57.27A19.77,19.77,0,1,0,307,77,19.76,19.76,0,0,0,287.24,57.27ZM280,86.35V67.72L297.55,77Z" transform="translate(0)" style="fill:#111215"/><path d="M134.05,0a22.06,22.06,0,1,0,22.06,22.05A22,22,0,0,0,134.05,0Zm-5.76,3.07A6.92,6.92,0,1,1,121.38,10,6.92,6.92,0,0,1,128.29,3.07ZM122,33.15A6.92,6.92,0,1,1,129,26.24,6.91,6.91,0,0,1,122,33.15Zm12-14a2.89,2.89,0,1,1-2.88,2.88A2.88,2.88,0,0,1,134.05,19.17Zm4.71,20.9a6.92,6.92,0,1,1,6.92-6.92A6.92,6.92,0,0,1,138.76,40.07Zm6.92-16.25a6.92,6.92,0,1,1,6.91-6.92A6.92,6.92,0,0,1,145.68,23.82Z" transform="translate(0)" style="fill:#111215"/><path d="M164.43,22.38C163,33.21,155,41.76,144.88,43.18a.18.18,0,0,1-.11-.34,24.5,24.5,0,0,0,12.71-20.6.94.94,0,0,1,.93-.9h5.1A.93.93,0,0,1,164.43,22.38Z" transform="translate(0)" style="fill:#111215"/><path d="M500.35,135.6l-1.09,1.09a3.37,3.37,0,0,1-4.77,0l-1.1-1.09a.71.71,0,0,0-1,0l-41.94,41.93a.72.72,0,0,0,0,1l1.1,1.09a3.39,3.39,0,0,1,0,4.77l-1.1,1.09a.72.72,0,0,0,0,1l13.32,13.31a.69.69,0,0,0,1,0l1.1-1.09a3.37,3.37,0,0,1,4.77,0l1.09,1.09a.69.69,0,0,0,1,0l41.94-41.93a.71.71,0,0,0,0-1l-1.09-1.1a3.37,3.37,0,0,1,0-4.77l1.09-1.09a.71.71,0,0,0,0-1L501.34,135.6A.71.71,0,0,0,500.35,135.6ZM495.72,167a.71.71,0,0,1,0,1l-25,25a.71.71,0,0,1-1,0L457.28,180.5a.71.71,0,0,1,0-1l25-25a.71.71,0,0,1,1,0Zm10-2.13-.8.8-.95-.95.8-.8ZM503.85,163l-.79.79-2-2,.8-.8Zm-2.9-2.91-.8.8-2-2,.8-.8ZM498,157.2l-.8.8-2-2,.79-.79Zm-2.91-2.91-.8.8-2-2,.79-.79Zm-2.91-2.9-.79.79-2-2,.79-.79Zm-2.91-2.91-.79.79-2-2,.8-.79Zm-2.91-2.91-.79.79-1-1,.79-.79Z" transform="translate(0)" style="fill:#111215"/><path d="M468.67,179.48l-.95,1,3.6,3.6L470,185.36l-3.52-3.52-1,1L464,181.55l3.39-3.39Z" transform="translate(0)" style="fill:#111215"/><path d="M469.25,175.92l5.09,5.09-1.6,1.6-5.09-5.09Z" transform="translate(0)" style="fill:#111215"/><path d="M474.19,174.36a1.41,1.41,0,0,0-.75.38.91.91,0,0,0-.24.44,1.19,1.19,0,0,0,0,.53,1.66,1.66,0,0,0,.2.55,2.54,2.54,0,0,0,.38.5,1.9,1.9,0,0,0,.44.32,1.41,1.41,0,0,0,.48.12,1.08,1.08,0,0,0,.47-.07,1.29,1.29,0,0,0,.44-.29,1.42,1.42,0,0,0,.45-.94l1.66.9a3.39,3.39,0,0,1-1,1.78q-1.89,1.9-4.28-.47a5.44,5.44,0,0,1-.88-1.17,4,4,0,0,1-.46-1.27,2.73,2.73,0,0,1,.05-1.24,2.41,2.41,0,0,1,.65-1.1,4.36,4.36,0,0,1,.46-.41,3.58,3.58,0,0,1,.47-.32,1.28,1.28,0,0,1,.4-.16.37.37,0,0,1,.28,0Z" transform="translate(0)" style="fill:#111215"/><path d="M477,168.22l1.12,3.45,3.81,1.56-1.32,1.32-2.16-.64,1.4,1.4-1.13,1.29-5-5,1.05-1.21,1.48,1.48-.64-2.33Z" transform="translate(0)" style="fill:#111215"/><path d="M485.38,170l-2.77,2.77-5-5,2.65-2.64,1.28,1.28-1.24,1.41.71.61,1.24-1.24,1,1-1.16,1.16.58.58L484,168.6Z" transform="translate(0)" style="fill:#111215"/><path d="M485.61,162.54l-.95.94,3.6,3.6-1.33,1.33-3.51-3.51-1,1-1.52-1.29,3.39-3.39Z" transform="translate(0)" style="fill:#111215"/><path d="M1023.44,99.93a2.36,2.36,0,0,0,.44-.51.23.23,0,0,0-.06-.27q-.15-.15-.27-.09a2.2,2.2,0,0,0-.53.45l-.35.35.42.42Z" transform="translate(0)" style="fill:#111215"/><path d="M1017.79,105.73a.25.25,0,0,0-.27-.08,2,2,0,0,0-.5.42l-2.14,2.14a2.15,2.15,0,0,0-.4.48.22.22,0,0,0,.07.27.23.23,0,0,0,.26.08,1.45,1.45,0,0,0,.44-.36l2.19-2.19a1.82,1.82,0,0,0,.42-.5A.21.21,0,0,0,1017.79,105.73Z" transform="translate(0)" style="fill:#111215"/><path d="M1054.94,125.7l-1-1a3.25,3.25,0,0,1,0-4.58l1-1a.68.68,0,0,0,0-1L1014.67,77.8a.68.68,0,0,0-.95,0l-1.05,1a3.23,3.23,0,0,1-4.58,0l-1.05-1a.68.68,0,0,0-.95,0L993.3,90.59a.68.68,0,0,0,0,1l1.05,1a3.25,3.25,0,0,1,0,4.58l-1.05,1a.69.69,0,0,0,0,1l40.27,40.26a.66.66,0,0,0,1,0l1-1.05a3.25,3.25,0,0,1,4.58,0l1,1.05a.66.66,0,0,0,1,0l12.79-12.78A.69.69,0,0,0,1054.94,125.7Zm-17-11.33,1.42-.48-.48,1.42.89,1.21-1.5,0-.86,1.22-.45-1.43-1.43-.45,1.22-.86,0-1.5Zm-8.75-8.74,1.43-.48-.49,1.42.9,1.2-1.5,0-.87,1.23-.44-1.43-1.43-.45,1.22-.87,0-1.5Zm-12.59-17.34,3.29,3.3-1.16,1.16-.89-.9-4.64,4.63-1.5-1.5,4.63-4.64-.89-.89Zm-8.24,14.83a1.56,1.56,0,0,1-1.05-.07,3.45,3.45,0,0,1-2-2,1.58,1.58,0,0,1,0-1.14,4.52,4.52,0,0,1,.87-1.14l.38-.38,1.4,1.4-.71.71a1.46,1.46,0,0,0-.36.48.33.33,0,0,0,.12.3.35.35,0,0,0,.34.1,1,1,0,0,0,.43-.27,1.59,1.59,0,0,0,.53-.81,6.19,6.19,0,0,0-.18-1.23,9.67,9.67,0,0,1-.21-1.29,1.8,1.8,0,0,1,.17-.77,2.82,2.82,0,0,1,.63-.87,3.08,3.08,0,0,1,1.15-.81,1.61,1.61,0,0,1,1,.07,3.25,3.25,0,0,1,1.09.74,3.41,3.41,0,0,1,.81,1.19,1.51,1.51,0,0,1,.07,1,3.59,3.59,0,0,1-.85,1.11l-.23.23-1.39-1.4.43-.43c.2-.2.31-.34.32-.43a.29.29,0,0,0-.09-.27.32.32,0,0,0-.32-.09,1,1,0,0,0-.41.27,1.26,1.26,0,0,0-.35.51,1.52,1.52,0,0,0,.07.78,5.91,5.91,0,0,1,.28,2.25,3.09,3.09,0,0,1-1,1.49A2.91,2.91,0,0,1,1008.33,103.12Zm11.83-11.23,1.45,1.44-1.31,1.31a1.59,1.59,0,0,1,.66.14,1.7,1.7,0,0,1,.55.38,1.46,1.46,0,0,1,.45.84,1.09,1.09,0,0,1-.12.77,6.46,6.46,0,0,1-.86,1l-3.27,3.27-1.45-1.44,3.34-3.35a2.65,2.65,0,0,0,.5-.57.24.24,0,0,0-.07-.3.25.25,0,0,0-.3-.06,2.37,2.37,0,0,0-.53.44l-3.39,3.39-1.44-1.45Zm-8.48,15.72-1.44-1.45,3.34-3.34a3.07,3.07,0,0,0,.49-.58.24.24,0,0,0-.07-.3.24.24,0,0,0-.3,0,2.24,2.24,0,0,0-.53.43l-3.38,3.39-1.45-1.45,5.79-5.79,1.45,1.45-1.31,1.3a2.11,2.11,0,0,1,.67.14,2,2,0,0,1,.55.38,1.52,1.52,0,0,1,.45.84,1.08,1.08,0,0,1-.12.77,6.66,6.66,0,0,1-.86,1Zm8.21-7.86,1.38-1.38a3.39,3.39,0,0,1,1.15-.82,1.66,1.66,0,0,1,1.1,0,3.1,3.1,0,0,1,1.85,1.93,1.76,1.76,0,0,1-.06,1.16,4.08,4.08,0,0,1-.91,1.23l-.63.63-1.87-1.87-1,1a1.68,1.68,0,0,0-.37.46.26.26,0,0,0,.09.27.31.31,0,0,0,.34.1,2.18,2.18,0,0,0,.54-.42l.62-.63,1.37,1.37-.35.35a4.63,4.63,0,0,1-.73.62,2.06,2.06,0,0,1-.76.25,1.8,1.8,0,0,1-.92-.12,2.7,2.7,0,0,1-.92-.65,3.19,3.19,0,0,1-.68-.94,1.71,1.71,0,0,1-.18-.91,1.78,1.78,0,0,1,.24-.78A4.25,4.25,0,0,1,1019.89,99.75Zm-2.52,9.71a6.61,6.61,0,0,1-1,.87,1.78,1.78,0,0,1-.83.28,1.66,1.66,0,0,1-.92-.16,3,3,0,0,1-.89-.63,4.15,4.15,0,0,1-.71-.92,1.56,1.56,0,0,1-.19-.84,1.75,1.75,0,0,1,.25-.77,5,5,0,0,1,.83-1l1.21-1.22a4.42,4.42,0,0,1,1.18-.89,1.67,1.67,0,0,1,1.11-.08,2.58,2.58,0,0,1,1.18.73,3.15,3.15,0,0,1,.69,1,1.81,1.81,0,0,1,.16.91,1.89,1.89,0,0,1-.22.74,4,4,0,0,1-.68.82Zm3.32,4.28a5.59,5.59,0,0,1-1,.85,1.08,1.08,0,0,1-.75.12,1.49,1.49,0,0,1-1.11-1,1.86,1.86,0,0,1-.05-.79l-1.09,1.09-1.44-1.44,5.42-5.43,1.47,1.47-.44.4a2,2,0,0,1,.81,0,1.45,1.45,0,0,1,.63.39,1.32,1.32,0,0,1,.4.76,1.07,1.07,0,0,1-.11.72,5.27,5.27,0,0,1-.74.86Zm3.8,3.81a5.11,5.11,0,0,1-1,.84,1.08,1.08,0,0,1-.75.12,1.38,1.38,0,0,1-.74-.41,1.58,1.58,0,0,1-.37-.62,1.87,1.87,0,0,1,0-.79l-1.09,1.09-1.45-1.45,5.43-5.42,1.47,1.47-.45.39a2,2,0,0,1,.81,0,1.46,1.46,0,0,1,.63.38,1.29,1.29,0,0,1,.4.76,1,1,0,0,1-.11.72,4.7,4.7,0,0,1-.74.87Zm.53,3.4-1.49-1.49,4.75-4.75,1.49,1.49Zm5.4-6.89-1.43-.45,1.22-.87v-1.5l1.2.9,1.42-.48-.48,1.42.9,1.2-1.51,0-.86,1.23Zm.68,8.39-1.87-1.87-1,1a1.49,1.49,0,0,0-.37.47.25.25,0,0,0,.08.27.31.31,0,0,0,.35.09,1.76,1.76,0,0,0,.53-.42l.63-.62,1.37,1.37-.35.35a4.62,4.62,0,0,1-.74.62,1.89,1.89,0,0,1-.76.24,1.7,1.7,0,0,1-.92-.11,3,3,0,0,1-.92-.65,3.54,3.54,0,0,1-.68-.94,2,2,0,0,1-.18-.91,1.83,1.83,0,0,1,.24-.78,4.32,4.32,0,0,1,.73-.88l1.39-1.39a3.3,3.3,0,0,1,1.15-.81,1.6,1.6,0,0,1,1.1,0,2.8,2.8,0,0,1,1.07.69,2.69,2.69,0,0,1,.77,1.23,1.86,1.86,0,0,1,0,1.17,4.14,4.14,0,0,1-.92,1.23Zm1.63,5.15a1.45,1.45,0,0,1-1,0,2.94,2.94,0,0,1-1-.69,3.32,3.32,0,0,1-.77-1.12,1.41,1.41,0,0,1-.07-1,2.84,2.84,0,0,1,.74-1l.23-.22,1.28,1.28-.3.3a2,2,0,0,0-.45.54.27.27,0,0,0,.07.31.4.4,0,0,0,.3.14.78.78,0,0,0,.38-.27,1,1,0,0,0,.35-.5,9.67,9.67,0,0,0-.34-1.35,2.7,2.7,0,0,1-.12-1.43,2.26,2.26,0,0,1,.55-.83,2.54,2.54,0,0,1,1-.69,1.35,1.35,0,0,1,.93.1,3.15,3.15,0,0,1,1,.69,3.34,3.34,0,0,1,.68.92,1.65,1.65,0,0,1,.19.82,1.12,1.12,0,0,1-.15.58,3.26,3.26,0,0,1-.49.57l-.27.27-1.28-1.28.26-.26a1.8,1.8,0,0,0,.37-.45c0-.08,0-.18-.1-.28a.3.3,0,0,0-.26-.1.54.54,0,0,0-.3.18,1.73,1.73,0,0,0-.29.35.72.72,0,0,0,0,.41,5.63,5.63,0,0,0,.27,1,3.27,3.27,0,0,1,.25,1.4,1.84,1.84,0,0,1-.6,1A2.83,2.83,0,0,1,1032.73,127.6Z" transform="translate(0)" style="fill:#111215"/><path d="M1025.39,113.33a.26.26,0,0,0-.29-.08,3.35,3.35,0,0,0-.56.48l-2,2a2.9,2.9,0,0,0-.49.58.24.24,0,0,0,.08.29.22.22,0,0,0,.27.08,2.4,2.4,0,0,0,.51-.45l2-2a3.1,3.1,0,0,0,.5-.57Q1025.54,113.48,1025.39,113.33Z" transform="translate(0)" style="fill:#111215"/><path d="M1021.59,109.53a.25.25,0,0,0-.29-.08,2.62,2.62,0,0,0-.56.48l-2,2a2.36,2.36,0,0,0-.49.58.24.24,0,0,0,.07.29c.1.09.19.12.28.07a2.56,2.56,0,0,0,.51-.44l2-2a4.41,4.41,0,0,0,.51-.57Q1021.74,109.68,1021.59,109.53Z" transform="translate(0)" style="fill:#111215"/><path d="M1031.16,119.1c-.1-.1-.2-.14-.28-.1a3,3,0,0,0-.53.46l-.34.34.42.43.34-.35a2.27,2.27,0,0,0,.44-.52A.2.2,0,0,0,1031.16,119.1Z" transform="translate(0)" style="fill:#111215"/><path d="M1384.13,57.65a.51.51,0,0,0-.3-.1.41.41,0,0,0-.18.05.93.93,0,0,0-.14.14.72.72,0,0,0-.09.2.91.91,0,0,0,0,.23.64.64,0,0,0,0,.2.44.44,0,0,0,.24.27.53.53,0,0,0,.19,0,.57.57,0,0,0,.37-.13l.2.67a1.26,1.26,0,0,1-.73.22c-.66,0-1-.42-1-1.25a1.91,1.91,0,0,1,.08-.54,1.3,1.3,0,0,1,.21-.46,1.15,1.15,0,0,1,.34-.32,1,1,0,0,1,.46-.11h.23l.21,0,.15.06a.17.17,0,0,1,.07.08Z" transform="translate(0)" style="fill:#111215"/><path d="M1385.46,56.76a.73.73,0,0,1,.41.12,1,1,0,0,1,.31.33,1.74,1.74,0,0,1,.2.5,2.45,2.45,0,0,1,.07.62,1.68,1.68,0,0,1-.06.47,1.1,1.1,0,0,1-.18.34.73.73,0,0,1-.3.22.87.87,0,0,1-.4.08.88.88,0,0,1-.75-.35,1.81,1.81,0,0,1-.25-1.05,2.06,2.06,0,0,1,.06-.52,1.19,1.19,0,0,1,.18-.41.93.93,0,0,1,.3-.26A.88.88,0,0,1,1385.46,56.76Zm0,2a.15.15,0,0,0,.11,0,.27.27,0,0,0,.09-.12.59.59,0,0,0,.06-.16,1.23,1.23,0,0,0,0-.19c0-.43-.12-.65-.34-.65s-.24.17-.24.5a1.23,1.23,0,0,0,0,.27.65.65,0,0,0,.06.21.43.43,0,0,0,.09.13A.21.21,0,0,0,1385.5,58.71Z" transform="translate(0)" style="fill:#111215"/><path d="M1388.41,59.33l-.6.09-.45-.68v.66l-.7,0-.07-2.65h0s.07,0,.22,0a5.66,5.66,0,0,1,.63,0,1,1,0,0,1,.44.12.57.57,0,0,1,.25.28,1.18,1.18,0,0,1,.09.5.91.91,0,0,1-.3.64Zm-1.11-1.43c.17,0,.26-.11.26-.23v0a.28.28,0,0,0-.09-.17.34.34,0,0,0-.21-.09Z" transform="translate(0)" style="fill:#111215"/><path d="M1390.43,59.42l-.63,0-.51-.86.06.92h-.7v-2.6h.66l.47,1.08V56.76l.65,0Z" transform="translate(0)" style="fill:#111215"/><path d="M1384.19,53.64a.77.77,0,0,1,.61.25,1,1,0,0,1,.21.69.84.84,0,0,1-.57.9.71.71,0,0,1-.29.05l0,.8h-.8V53.69l.67,0h.14Zm-.06,1.25a.35.35,0,0,0,.22-.08.23.23,0,0,0,.09-.19.3.3,0,0,0-.1-.24.37.37,0,0,0-.25-.09h0Z" transform="translate(0)" style="fill:#111215"/><path d="M1386.12,53.64a.7.7,0,0,1,.42.13,1.1,1.1,0,0,1,.31.33,1.63,1.63,0,0,1,.2.5,3,3,0,0,1,.07.62,1.31,1.31,0,0,1-.07.46.89.89,0,0,1-.18.35.7.7,0,0,1-.29.22,1,1,0,0,1-.4.08.88.88,0,0,1-.75-.35,1.82,1.82,0,0,1-.25-1.06,2.12,2.12,0,0,1,.06-.52,1.22,1.22,0,0,1,.18-.4.83.83,0,0,1,.3-.26A.88.88,0,0,1,1386.12,53.64Zm.05,2a.18.18,0,0,0,.11-.05.53.53,0,0,0,.09-.11l.06-.16a1.23,1.23,0,0,0,0-.2c0-.43-.12-.64-.35-.64s-.23.16-.23.49a1.14,1.14,0,0,0,0,.27.65.65,0,0,0,.06.21.28.28,0,0,0,.09.14A.21.21,0,0,0,1386.17,55.6Z" transform="translate(0)" style="fill:#111215"/><path d="M1388.24,53.64a.8.8,0,0,1,.61.25,1,1,0,0,1,.21.69.84.84,0,0,1-.57.9.74.74,0,0,1-.29.05l0,.8h-.79V53.69l.67,0h.14Zm-.06,1.25a.32.32,0,0,0,.21-.08.24.24,0,0,0,.1-.19.3.3,0,0,0-.11-.24.35.35,0,0,0-.25-.09h0Z" transform="translate(0)" style="fill:#111215"/><path d="M1399.54,41.91a5.94,5.94,0,0,0,.46-2.27,5.76,5.76,0,0,0-1-3.25,5.57,5.57,0,0,0-5.46-6.67,5.54,5.54,0,0,1-7.38-.31,5.47,5.47,0,0,0-3.49,1.25,6.79,6.79,0,0,0-8.34,9.16,3.69,3.69,0,0,0-.89,1.59.77.77,0,0,0,.74,1h.37a.76.76,0,0,0-.76.84l2.88,26.69a.77.77,0,0,0,.76.68h18.45a.77.77,0,0,0,.76-.68l2.89-26.69a.76.76,0,0,0-.76-.84h.06A.79.79,0,0,0,1399.54,41.91ZM1375,40.45a2.87,2.87,0,0,1,.79-1.25,5,5,0,0,1-.64-2.43c.18-2.71,2.71-4.89,5.8-5a6.86,6.86,0,0,1,2.15.26,5.44,5.44,0,0,1,6.56.25,5.4,5.4,0,0,1,3.16-1c2.76,0,5,2,5,4.37a4,4,0,0,1-.1.86,4.09,4.09,0,0,1,.48,4.33.71.71,0,0,1-.64.37H1375.7A.62.62,0,0,1,1375,40.45ZM1378.49,69a.68.68,0,0,1-.67-.6l-2.55-23.22a.66.66,0,0,1,.67-.73h1.83l2,24.55Zm14.25-12.28a4.18,4.18,0,0,1-.62,2.16L1391.53,69h-2l.28-8.07a7.2,7.2,0,0,1-2.15.67l-.08,7.4h-2l-.09-7.4a7,7,0,0,1-2.15-.66l.29,8.06h-2l-.6-10.08a4.23,4.23,0,0,1-.63-2.2,4,4,0,0,1,.4-1.75l-.63-10.52h2.54l.29,8.22a6.65,6.65,0,0,1,2.33-.81l-.09-7.41h2.51l-.08,7.41a7.08,7.08,0,0,1,2.33.81l.29-8.22H1393L1392.35,55A4.25,4.25,0,0,1,1392.74,56.7Zm2.76,11.68a.68.68,0,0,1-.68.6h-1.34l2-24.55h1.88a.67.67,0,0,1,.67.73Z" transform="translate(0)" style="fill:#111215"/><path d="M733.66,118l-33.95-9.1,35,3.06a.83.83,0,0,0,.9-.75l.57-6.58a.82.82,0,0,0-.75-.9l-37.84-3.31a.83.83,0,0,0-.89.75l-.58,6.58a.89.89,0,0,0,.18.58.8.8,0,0,0-.3.42l-6.41,23.93a.83.83,0,0,0,.59,1l36.68,9.83a.83.83,0,0,0,1-.58l6.41-23.93A.84.84,0,0,0,733.66,118Zm-19.48,2.46,5.75-5.13a.1.1,0,0,1,.07,0l6.89,1.85a.08.08,0,0,1,0,.14l-5.74,5.13a.11.11,0,0,1-.08,0l-6.89-1.84A.08.08,0,0,1,714.18,120.5Zm-12.66-3.39,5.75-5.13a.07.07,0,0,1,.07,0l6.89,1.85a.08.08,0,0,1,0,.14l-5.75,5.12a.06.06,0,0,1-.07,0l-6.89-1.84A.08.08,0,0,1,701.52,117.11Zm28.81-13,4.08.36a.08.08,0,0,1,.08.09l-.54,6.22a.09.09,0,0,1-.16,0l-3.54-6.58A.08.08,0,0,1,730.33,104.16ZM717.27,103l7.11.62a.08.08,0,0,1,.06,0l3.65,6.79a.08.08,0,0,1-.08.12l-7.1-.62s-.06,0-.07,0l-3.65-6.78A.08.08,0,0,1,717.27,103Zm-13.06-1.14,7.11.62a.07.07,0,0,1,.06,0l3.65,6.78a.09.09,0,0,1-.08.13l-7.1-.63a.08.08,0,0,1-.07,0L704.14,102A.08.08,0,0,1,704.21,101.88Zm-5.77-.28,3.53,6.58a.08.08,0,0,1-.07.12l-4.09-.35s-.08,0-.07-.09l.54-6.23A.09.09,0,0,1,698.44,101.6Zm-2.55,13.84,1.62-6a.09.09,0,0,1,.1-.06l4,1.06a.08.08,0,0,1,0,.14l-5.57,5A.09.09,0,0,1,695.89,115.44Zm27.37,22.3a.83.83,0,0,1-1,.58l-25.52-6.84a.82.82,0,0,1-.58-1l.21-.79a.83.83,0,0,1,1-.59l25.52,6.84a.82.82,0,0,1,.59,1Zm1.06-4a.83.83,0,0,1-1,.58l-25.52-6.83a.82.82,0,0,1-.58-1l.21-.8a.84.84,0,0,1,1-.59L724,132a.82.82,0,0,1,.58,1Zm6.61-8.75a.08.08,0,0,1-.1.06l-4-1.06a.08.08,0,0,1,0-.14l5.58-5a.08.08,0,0,1,.13.08Z" transform="translate(0)" style="fill:#111215"/><path d="M855.67,34.49a.23.23,0,0,0-.41-.17,34.26,34.26,0,0,1-4,4.26,23.48,23.48,0,0,0,.45-4.55c0-.65,0-1.3-.08-1.94,2.38-2.67,2.29-6.88,1-10.09a.22.22,0,0,0-.43,0,34.72,34.72,0,0,1-1.46,5.28,23.72,23.72,0,0,0-3-6.37,1.12,1.12,0,0,0-.91-.49,1.08,1.08,0,0,0-1.08,1.09,1,1,0,0,0,.18.6,21.64,21.64,0,0,1,2.32,4.67,34.08,34.08,0,0,1-4-4,.23.23,0,0,0-.41.18c.44,3.29,2.3,6.83,5.44,8.14a22.7,22.7,0,0,1,.2,2.88,21.36,21.36,0,0,1-.6,5,35.26,35.26,0,0,1-1.1-5.54.23.23,0,0,0-.43-.08c-1.48,3-1.88,7,.05,9.84a21.44,21.44,0,0,1-4.17,5.91,34.48,34.48,0,0,1,1.14-5.72.23.23,0,0,0-.37-.24c-2.38,2.08-4.25,5.36-3.87,8.55a21.26,21.26,0,0,1-3.11,1.79L837,53a.94.94,0,0,0-.91-.71H831.7l-1.63-8.4a8.44,8.44,0,0,0,4.61-2.78,8.44,8.44,0,0,0,6.82-8.58v-4a.72.72,0,0,0-.72-.72H836.7V25.92h1.49a.68.68,0,0,0,.68-.69V23a.68.68,0,0,0-.68-.69H818.36a.69.69,0,0,0-.69.69v2.22a.69.69,0,0,0,.69.69h1.49v1.85h-4.09a.71.71,0,0,0-.71.72v4a8.44,8.44,0,0,0,6.82,8.58,8.41,8.41,0,0,0,4.61,2.78l-1.63,8.4h-4.34a.93.93,0,0,0-.91.71l-.14.58a21.26,21.26,0,0,1-3.11-1.79c.38-3.19-1.49-6.47-3.87-8.55a.23.23,0,0,0-.37.24,34.48,34.48,0,0,1,1.14,5.72,21.44,21.44,0,0,1-4.17-5.91c1.93-2.83,1.52-6.84,0-9.84a.23.23,0,0,0-.43.08,35.26,35.26,0,0,1-1.1,5.54,21.36,21.36,0,0,1-.6-5,22.7,22.7,0,0,1,.2-2.88c3.14-1.31,5-4.85,5.43-8.14a.23.23,0,0,0-.4-.18,34.08,34.08,0,0,1-4,4,21.2,21.2,0,0,1,2.32-4.67,1.09,1.09,0,1,0-1.81-1.2,23.74,23.74,0,0,0-3,6.37A35.88,35.88,0,0,1,804.35,22a.23.23,0,0,0-.44,0c-1.29,3.21-1.37,7.42,1,10.09-.06.64-.09,1.29-.09,1.94a23.48,23.48,0,0,0,.46,4.55,34.26,34.26,0,0,1-4-4.26.23.23,0,0,0-.41.17c.35,3.51,2.28,7.37,5.75,8.57A23.43,23.43,0,0,0,810,48.78a34.88,34.88,0,0,1-5.47-2,.23.23,0,0,0-.28.33c1.91,3,5.4,5.52,9,5A23.89,23.89,0,0,0,819,55.72l-.11.46a1.09,1.09,0,0,0,0,.36.93.93,0,0,0,.93.76h17a.94.94,0,0,0,.93-.76,1.09,1.09,0,0,0,0-.36l-.11-.46a23.89,23.89,0,0,0,5.69-3.56c3.63.52,7.12-2,9-5a.23.23,0,0,0-.28-.33,34.88,34.88,0,0,1-5.47,2,23.75,23.75,0,0,0,3.36-5.72C853.39,41.86,855.32,38,855.67,34.49Zm-16-4.75v2.37a7.22,7.22,0,0,1-3.47,6.29,8.55,8.55,0,0,0,.47-2.79V29.74Zm-22.86,2.37V29.74h3v5.87a8.55,8.55,0,0,0,.47,2.79A7.23,7.23,0,0,1,816.84,32.11Z" transform="translate(0)" style="fill:#111215"/><path d="M1291.32,114.12h-35.15l34.56-6.09a.83.83,0,0,0,.67-1l-1.15-6.5a.82.82,0,0,0-1-.67l-37.41,6.59a.83.83,0,0,0-.67,1l1.15,6.51a.87.87,0,0,0,.32.51.75.75,0,0,0-.18.48v24.77a.83.83,0,0,0,.83.83h38a.82.82,0,0,0,.82-.83V115A.82.82,0,0,0,1291.32,114.12Zm-18.18,7.42,4.22-6.44a.09.09,0,0,1,.07,0h7.13a.08.08,0,0,1,.07.12l-4.23,6.44a.07.07,0,0,1-.07,0h-7.13A.08.08,0,0,1,1273.14,121.54Zm-13.11,0,4.22-6.44a.09.09,0,0,1,.07,0h7.13a.08.08,0,0,1,.07.12l-4.22,6.44a.08.08,0,0,1-.07,0h-7.13A.08.08,0,0,1,1260,121.54Zm24.48-20,4-.71a.08.08,0,0,1,.09.07l1.09,6.15a.09.09,0,0,1-.15.07l-5.12-5.44A.08.08,0,0,1,1284.51,101.58Zm-12.91,2.28,7-1.24a.11.11,0,0,1,.08,0l5.28,5.61a.08.08,0,0,1,0,.14l-7,1.24a.11.11,0,0,1-.08,0l-5.27-5.6A.08.08,0,0,1,1271.6,103.86Zm-12.91,2.27,7-1.23a.08.08,0,0,1,.08,0l5.28,5.61a.08.08,0,0,1,0,.14l-7,1.24a.09.09,0,0,1-.07,0l-5.28-5.61A.08.08,0,0,1,1258.69,106.13Zm-5.65,1.24,5.12,5.44a.08.08,0,0,1-.05.13l-4,.72a.1.1,0,0,1-.1-.07l-1.08-6.15A.08.08,0,0,1,1253,107.37Zm1.12,14v-6.24a.08.08,0,0,1,.09-.08h4.1a.07.07,0,0,1,.06.12l-4.1,6.25A.08.08,0,0,1,1254.16,121.39Zm32.21,14.46a.83.83,0,0,1-.83.82h-26.42a.83.83,0,0,1-.83-.82V135a.83.83,0,0,1,.83-.82h26.42a.83.83,0,0,1,.83.82Zm0-4.1a.83.83,0,0,1-.83.83h-26.42a.83.83,0,0,1-.83-.83v-.83a.83.83,0,0,1,.83-.82h26.42a.83.83,0,0,1,.83.82Zm4.12-10.16a.08.08,0,0,1-.08.08h-4.1a.09.09,0,0,1-.07-.13l4.1-6.25a.08.08,0,0,1,.15,0Z" transform="translate(0)" style="fill:#111215"/><path d="M44.59,131.44a.19.19,0,0,0-.33-.14A27.4,27.4,0,0,1,41,134.77a18.9,18.9,0,0,0,.37-3.71c0-.53,0-1.05-.06-1.57,1.93-2.18,1.86-5.61.81-8.22a.18.18,0,0,0-.35,0,27.84,27.84,0,0,1-1.19,4.29,19.26,19.26,0,0,0-2.4-5.18.88.88,0,0,0-1.62.49.8.8,0,0,0,.15.48,18,18,0,0,1,1.88,3.81A28.41,28.41,0,0,1,35.35,122a.18.18,0,0,0-.32.14c.35,2.68,1.86,5.56,4.42,6.63a18.15,18.15,0,0,1,.16,2.34,17.75,17.75,0,0,1-.48,4.09,28.13,28.13,0,0,1-.9-4.51.18.18,0,0,0-.35-.06c-1.2,2.44-1.53,5.7,0,8a17.7,17.7,0,0,1-3.4,4.81,28.07,28.07,0,0,1,.93-4.66.19.19,0,0,0-.3-.2c-1.94,1.7-3.46,4.37-3.15,7A17.47,17.47,0,0,1,29.47,147l-.11-.47a.76.76,0,0,0-.75-.58H25.08l-1.32-6.84a6.79,6.79,0,0,0,3.75-2.26,6.87,6.87,0,0,0,5.55-7v-3.27a.58.58,0,0,0-.58-.58H29.15v-1.51h1.22a.55.55,0,0,0,.55-.55v-1.82a.55.55,0,0,0-.55-.55H14.23a.56.56,0,0,0-.56.55v1.82a.56.56,0,0,0,.56.55h1.21V126H12.12a.58.58,0,0,0-.59.58v3.27a6.88,6.88,0,0,0,5.55,7,6.79,6.79,0,0,0,3.75,2.26l-1.32,6.84H16a.76.76,0,0,0-.75.58l-.11.47a18,18,0,0,1-2.53-1.45c.31-2.6-1.21-5.27-3.15-7a.19.19,0,0,0-.3.2,28.07,28.07,0,0,1,.93,4.66,17.7,17.7,0,0,1-3.4-4.81c1.57-2.31,1.25-5.57,0-8a.18.18,0,0,0-.35.06,29.27,29.27,0,0,1-.9,4.51A17.22,17.22,0,0,1,5,131.06a16.53,16.53,0,0,1,.17-2.34c2.55-1.07,4.07-4,4.42-6.63a.19.19,0,0,0-.33-.14A28.41,28.41,0,0,1,6,125.2a17.58,17.58,0,0,1,1.89-3.81A.88.88,0,0,0,7.15,120a.87.87,0,0,0-.73.4A19,19,0,0,0,4,125.6a27.81,27.81,0,0,1-1.18-4.29.19.19,0,0,0-.36,0c-1.05,2.61-1.12,6,.82,8.22,0,.52-.07,1-.07,1.57a18.9,18.9,0,0,0,.37,3.71A28.14,28.14,0,0,1,.33,131.3a.19.19,0,0,0-.33.14c.28,2.85,1.86,6,4.68,7a19.52,19.52,0,0,0,2.73,4.65A27.6,27.6,0,0,1,3,141.48a.19.19,0,0,0-.24.27c1.56,2.42,4.4,4.5,7.36,4.07a18.87,18.87,0,0,0,4.63,2.89l-.09.38a.72.72,0,0,0,0,.29.76.76,0,0,0,.75.62H29.22a.74.74,0,0,0,.75-.62.57.57,0,0,0,0-.29l-.08-.38a19.25,19.25,0,0,0,4.63-2.89c3,.43,5.79-1.65,7.35-4.07a.19.19,0,0,0-.23-.27,28.06,28.06,0,0,1-4.45,1.59,19.19,19.19,0,0,0,2.73-4.65C42.74,137.44,44.31,134.29,44.59,131.44Zm-13-3.87v1.93a5.87,5.87,0,0,1-2.83,5.12,6.8,6.8,0,0,0,.38-2.27v-4.78ZM13,129.5v-1.93h2.45v4.78a7.06,7.06,0,0,0,.38,2.27A5.87,5.87,0,0,1,13,129.5Z" transform="translate(0)" style="fill:#111215"/><path d="M572,78.68a.55.55,0,0,0-.31,0,.34.34,0,0,0-.16.1.48.48,0,0,0-.1.17.78.78,0,0,0,0,.21,1,1,0,0,0,0,.24.75.75,0,0,0,.08.18.4.4,0,0,0,.13.13.61.61,0,0,0,.17.07.47.47,0,0,0,.2,0,.52.52,0,0,0,.32-.21l.37.6a1.36,1.36,0,0,1-.65.39c-.64.18-1.07-.14-1.29-1a2,2,0,0,1-.07-.54,1.64,1.64,0,0,1,.09-.5,1.14,1.14,0,0,1,.25-.39.88.88,0,0,1,.41-.23l.23,0a.77.77,0,0,1,.21,0,.39.39,0,0,1,.16,0,.15.15,0,0,1,.09.06Z" transform="translate(0)" style="fill:#111215"/><path d="M573,77.47a.89.89,0,0,1,.43,0,1.15,1.15,0,0,1,.39.24,1.67,1.67,0,0,1,.32.44,2.81,2.81,0,0,1,.23.58,2,2,0,0,1,.06.46,1,1,0,0,1-.09.39.74.74,0,0,1-.22.28,1.06,1.06,0,0,1-.37.18.85.85,0,0,1-.81-.14,1.78,1.78,0,0,1-.52-1,2.44,2.44,0,0,1-.08-.51,1.19,1.19,0,0,1,.08-.44.83.83,0,0,1,.22-.33A.79.79,0,0,1,573,77.47Zm.55,1.88a.23.23,0,0,0,.1-.07.46.46,0,0,0,.05-.14.79.79,0,0,0,0-.17l0-.19c-.12-.41-.28-.59-.5-.53s-.19.22-.1.54a1.47,1.47,0,0,0,.08.25,1,1,0,0,0,.12.19.35.35,0,0,0,.12.1A.18.18,0,0,0,573.55,79.35Z" transform="translate(0)" style="fill:#111215"/><path d="M576.52,79.2l-.55.24-.61-.55.17.64-.67.23-.76-2.54s0,0,0,0,.07,0,.21-.08.44-.11.62-.14a1.31,1.31,0,0,1,.45,0,.54.54,0,0,1,.32.21,1.1,1.1,0,0,1,.21.46.89.89,0,0,1-.12.69Zm-1.44-1.09c.16-.08.22-.18.19-.3v0a.24.24,0,0,0-.12-.14.42.42,0,0,0-.23,0Z" transform="translate(0)" style="fill:#111215"/><path d="M578.5,78.76l-.62.12-.72-.7.3.88-.68.18-.67-2.52.63-.16.74.92-.3-1.12.64-.14Z" transform="translate(0)" style="fill:#111215"/><path d="M571,74.79a.81.81,0,0,1,.66.08,1.09,1.09,0,0,1,.38.62.85.85,0,0,1-.32,1,.91.91,0,0,1-.26.13l.23.76-.77.21-.68-2.55.63-.21.06,0,0,0h0Zm.27,1.23a.45.45,0,0,0,.19-.14.25.25,0,0,0,0-.21.37.37,0,0,0-.16-.21.36.36,0,0,0-.27,0h0Z" transform="translate(0)" style="fill:#111215"/><path d="M572.84,74.29a.89.89,0,0,1,.43,0,1.15,1.15,0,0,1,.39.24A1.67,1.67,0,0,1,574,75a2.81,2.81,0,0,1,.23.58,2,2,0,0,1,.06.46,1.17,1.17,0,0,1-.09.39.77.77,0,0,1-.23.28.87.87,0,0,1-.36.18.85.85,0,0,1-.81-.14,1.78,1.78,0,0,1-.52-1,1.92,1.92,0,0,1-.08-.51,1.19,1.19,0,0,1,.08-.44.81.81,0,0,1,.21-.33A.88.88,0,0,1,572.84,74.29Zm.55,1.88a.17.17,0,0,0,.1-.07.56.56,0,0,0,.06-.31.68.68,0,0,0,0-.19c-.11-.41-.27-.59-.49-.53s-.19.22-.11.54c0,.09.06.18.09.25a1,1,0,0,0,.12.19.35.35,0,0,0,.12.1A.18.18,0,0,0,573.39,76.17Z" transform="translate(0)" style="fill:#111215"/><path d="M574.88,73.75a.76.76,0,0,1,.65.08,1,1,0,0,1,.39.61.86.86,0,0,1-.32,1,.88.88,0,0,1-.26.12l.22.76-.76.21L574.11,74l.64-.22.07,0,.07,0Zm.27,1.22a.32.32,0,0,0,.18-.14.19.19,0,0,0,0-.2.27.27,0,0,0-.16-.21.39.39,0,0,0-.26,0h0Z" transform="translate(0)" style="fill:#111215"/><path d="M582.76,59.49a5.78,5.78,0,0,0-1.94-5.19,6.88,6.88,0,0,0-.18-1.09,5.57,5.57,0,0,0-6.83-3.94,5.5,5.5,0,0,0-3.08,2.13A5.51,5.51,0,0,0,563.55,53a6.7,6.7,0,0,0-2.4.31A6.79,6.79,0,0,0,557.87,64a3.75,3.75,0,0,0-.45,1.77.76.76,0,0,0,1,.74l.36-.09a.75.75,0,0,0-.51,1l9.69,25a.77.77,0,0,0,.91.46l17.82-4.78a.76.76,0,0,0,.56-.85l-4.12-26.52a.76.76,0,0,0-1-.62l.06,0A.77.77,0,0,0,582.76,59.49Zm-24,4.93a2.88,2.88,0,0,1,.44-1.41,4.9,4.9,0,0,1-1.24-2.18c-.53-2.67,1.35-5.43,4.3-6.34a6.68,6.68,0,0,1,2.14-.31,5.47,5.47,0,0,1,6.41-1.46A5.37,5.37,0,0,1,573.56,51c2.66-.71,5.32.6,6,2.93a4.26,4.26,0,0,1,.13.86,4.07,4.07,0,0,1,1.58,4.06.69.69,0,0,1-.52.51l-8.36,2.25-3.68,1-3.53,1-3.94,1.05-1.64.44A.62.62,0,0,1,558.72,64.42Zm10.72,26.66a.66.66,0,0,1-.8-.4l-8.48-21.77a.67.67,0,0,1,.46-.88l1.77-.48,8.33,23.19ZM580,75.54a4.15,4.15,0,0,1,0,2.24l2,9.93-1.88.5-1.82-7.87a6.76,6.76,0,0,1-1.91,1.21l1.84,7.17-1.88.5-2-7.12a7,7,0,0,1-2.25-.08l2.36,7.71-1.88.5-3.19-9.58a4.13,4.13,0,0,1-1.18-2,4.07,4.07,0,0,1-.07-1.8l-3.33-10,2.45-.66,2.41,7.86a6.84,6.84,0,0,1,2-1.38l-2-7.14,2.42-.64L574,72.12a6.67,6.67,0,0,1,2.46.18l-1.85-8,2.45-.66L579.2,74A4.29,4.29,0,0,1,580,75.54Zm5.69,10.57a.67.67,0,0,1-.5.74l-1.3.35L579.51,63l1.82-.49a.67.67,0,0,1,.83.54Z" transform="translate(0)" style="fill:#111215"/><path d="M861.44,160.47a19.77,19.77,0,1,0,19.76,19.76A19.77,19.77,0,0,0,861.44,160.47Zm-7.23,29.08V170.92l17.53,9.31Z" transform="translate(0)" style="fill:#111215"/></svg>