<svg xmlns="http://www.w3.org/2000/svg" viewBox="0 0 408 329.53">
  <g className="browser">
    <path style="fill:#1b1b21" d="M391.57,57.13c5.18.73,9.4,6.24,9.41,12.29l.47,252.34c0,6.06-4.19,10.38-9.37,9.65L35.4,281.28C30.22,280.55,26,275.05,26,269L25.53,16.65c0-6,4.18-10.38,9.36-9.65Z" transform="translate(-2.56 -1.96)"/>
    <path style="fill:#202129" d="M410.1,64.46A11.12,11.12,0,0,0,410,63.3c0-.13,0-.26-.05-.39s-.06-.5-.1-.75-.07-.3-.1-.45-.09-.45-.15-.67-.09-.31-.14-.46-.13-.42-.2-.62a.56.56,0,0,0,0-.12c-.09-.25-.19-.51-.3-.76l0-.06c-.13-.28-.26-.54-.4-.81L408.4,58l-.37-.63-.14-.21c-.17-.27-.35-.52-.54-.77a1.47,1.47,0,0,0-.1-.13c-.16-.21-.33-.41-.5-.6l-.19-.21-.51-.52-.15-.14c-.22-.21-.45-.4-.69-.59L405,54c-.19-.15-.38-.28-.58-.41l-.22-.14a6.38,6.38,0,0,0-.67-.38l-.11-.07c-.27-.13-.53-.24-.81-.35l-.22-.08c-.21-.08-.42-.14-.63-.2l-.25-.07a8.17,8.17,0,0,0-.86-.17L44,2a7.58,7.58,0,0,0-4.72.83l-9.12,5A7.59,7.59,0,0,1,34.89,7L391.57,57.13a8.17,8.17,0,0,1,.86.17l.25.07c.21.06.42.12.63.2l.23.08c.27.11.54.22.8.35l.12.07a7.44,7.44,0,0,1,.66.38l.23.14c.19.13.38.26.57.41l.17.12c.24.19.47.38.69.59l.15.14.52.52.18.21c.17.19.34.39.5.6l.11.13c.18.25.36.5.54.77a2.39,2.39,0,0,0,.13.21c.13.21.25.42.37.63l.14.25c.14.27.27.53.39.81l0,.06a9.4,9.4,0,0,1,.34.88,6.4,6.4,0,0,1,.2.62c.05.15.1.31.14.46s.11.45.15.67.07.3.1.45.07.5.1.75,0,.26.05.39a11.12,11.12,0,0,1,.06,1.16l.47,252.34c0,.35,0,.68-.06,1s0,.44-.06.65-.08.5-.13.74-.08.42-.13.62-.14.47-.22.7-.12.38-.19.56-.19.43-.29.65-.16.34-.25.5-.25.41-.38.61-.18.3-.29.44-.3.37-.46.55-.21.25-.32.36a6,6,0,0,1-.59.53l-.29.26a7.59,7.59,0,0,1-1,.62h0l9.12-5a7.77,7.77,0,0,0,1-.63l.29-.26a7.43,7.43,0,0,0,.59-.53c.11-.11.21-.24.31-.36s.33-.36.47-.55.19-.3.29-.44.26-.39.38-.61.16-.33.24-.5.21-.43.3-.65.13-.38.19-.56.15-.46.22-.7.08-.41.13-.61.09-.49.13-.75,0-.43.06-.65,0-.35.05-.53,0-.33,0-.49Z" transform="translate(-2.56 -1.96)"/>
  </g>
  <g className="three-browser-buttons">
    <path style="fill:#fb0000;cursor:pointer" d="M48.88,13.85c2.36.33,4.28,2.84,4.28,5.6s-1.9,4.73-4.26,4.4-4.28-2.85-4.29-5.6S46.52,13.52,48.88,13.85Z" transform="translate(-12.88 -3.35)"/>
    <path style="fill:#fb7d00;cursor:pointer" d="M48.88,13.85c2.36.33,4.28,2.84,4.28,5.6s-1.9,4.73-4.26,4.4-4.28-2.85-4.29-5.6S46.52,13.52,48.88,13.85Z" transform="translate(-2.56 -1.96)"/>
    <path style="fill:#00fb00;cursor:pointer" d="M48.88,13.85c2.36.33,4.28,2.84,4.28,5.6s-1.9,4.73-4.26,4.4-4.28-2.85-4.29-5.6S46.52,13.52,48.88,13.85Z" transform="translate(7.90 -0.38)"/>
  </g>
  <g className="search-the-shoppies">
    <path style="fill:#d9d9d9" d="M358.85,80.09a3.75,3.75,0,0,1,3,3.71l0,9.61a2.66,2.66,0,0,1-2.95,2.88L70.06,55.7a3.72,3.72,0,0,1-3-3.71l0-9.61A2.65,2.65,0,0,1,70,39.5Z" transform="translate(-2.56 -1.96)"/>
    <g className="the-shoppies-text">
      <polygon style="fill:#171717" points="74.78 42.47 74.78 44.38 73.52 44.2 73.54 51.83 71.42 51.53 71.4 43.91 70.14 43.73 70.14 41.82 74.78 42.47"/>
      <path style="fill:#171717" d="M79.8,44.78v2.14a1.47,1.47,0,0,1,.57-.34,1.41,1.41,0,0,1,.65,0,1.57,1.57,0,0,1,.91.44,1.5,1.5,0,0,1,.46.8,8.66,8.66,0,0,1,.09,1.53v5.39l-2-.29V48.9a4.09,4.09,0,0,0-.06-.89.3.3,0,0,0-.25-.22.21.21,0,0,0-.26.16,3.2,3.2,0,0,0-.06.79v5.57l-2-.28V44.49Z" transform="translate(-2.56 -1.96)"/>
      <path style="fill:#171717" d="M87.8,51.67l-2.64-.37V53a2.31,2.31,0,0,0,.07.69.28.28,0,0,0,.25.19.25.25,0,0,0,.31-.16,2.26,2.26,0,0,0,.08-.78v-1l1.93.27v.58a5.14,5.14,0,0,1-.08,1.09,2.09,2.09,0,0,1-.36.78,1.42,1.42,0,0,1-.73.56,2.19,2.19,0,0,1-1.11.07,3.4,3.4,0,0,1-1.14-.37,2.32,2.32,0,0,1-.77-.72,2.41,2.41,0,0,1-.37-.89,5.71,5.71,0,0,1-.12-1.34V49.66a4.15,4.15,0,0,1,.23-1.58,1.46,1.46,0,0,1,.78-.8,2.29,2.29,0,0,1,1.24-.14,2.73,2.73,0,0,1,1.41.58,2.48,2.48,0,0,1,.79,1.11,6.11,6.11,0,0,1,.23,1.8Zm-2.64-2.22V50l.59.09v-.57a3.3,3.3,0,0,0-.06-.8.25.25,0,0,0-.22-.2c-.15,0-.23,0-.27.11a4.11,4.11,0,0,0,0,.8" transform="translate(-2.56 -1.96)"/>
      <path style="fill:#171717" d="M92.46,46.36a3.13,3.13,0,0,1,1.41.51,1.92,1.92,0,0,1,.78.89,5.3,5.3,0,0,1,.18,1.64v.38l-2-.28v-.71a1.74,1.74,0,0,0-.07-.64.34.34,0,0,0-.26-.17.26.26,0,0,0-.29.15,1.15,1.15,0,0,0-.09.53,2.09,2.09,0,0,0,.1.74,2.25,2.25,0,0,0,.61.66,7.66,7.66,0,0,1,1.78,1.87A4.48,4.48,0,0,1,95,54a3.8,3.8,0,0,1-.2,1.48,1.45,1.45,0,0,1-.79.7,2.61,2.61,0,0,1-1.36.14,3,3,0,0,1-1.45-.59,2.14,2.14,0,0,1-.8-1.07A6.52,6.52,0,0,1,90.23,53v-.63l2,.28V53.8a1.77,1.77,0,0,0,.08.7.37.37,0,0,0,.29.2.3.3,0,0,0,.32-.16A1.14,1.14,0,0,0,93,54a2.23,2.23,0,0,0-.2-1.13,7.69,7.69,0,0,0-1-1,11.24,11.24,0,0,1-1-1,2.57,2.57,0,0,1-.43-.83,4.11,4.11,0,0,1-.17-1.27,3.74,3.74,0,0,1,.24-1.57,1.37,1.37,0,0,1,.77-.68A2.55,2.55,0,0,1,92.46,46.36Z" transform="translate(-2.56 -1.96)"/>
      <path style="fill:#171717" d="M97.65,47.29v2.14a1.36,1.36,0,0,1,.57-.34,1.41,1.41,0,0,1,.65-.05,1.6,1.6,0,0,1,.91.44,1.57,1.57,0,0,1,.46.8,9,9,0,0,1,.08,1.53V57.2l-2-.29v-5.5a4,4,0,0,0-.06-.89A.29.29,0,0,0,98,50.3a.21.21,0,0,0-.25.16,3,3,0,0,0-.07.79l0,5.57-2-.28,0-9.54Z" transform="translate(-2.56 -1.96)"/>
      <path style="fill:#171717" d="M105.54,51.62a6.43,6.43,0,0,1,.09,1.26v1.91a9.22,9.22,0,0,1-.09,1.53,1.93,1.93,0,0,1-.39.86,1.41,1.41,0,0,1-.76.53,2.49,2.49,0,0,1-1.07,0,3.63,3.63,0,0,1-1.15-.33,2,2,0,0,1-.73-.63,2.8,2.8,0,0,1-.37-.9,8,8,0,0,1-.11-1.51v-2a5.22,5.22,0,0,1,.21-1.67,1.54,1.54,0,0,1,.72-.88,2.12,2.12,0,0,1,1.34-.18,3.16,3.16,0,0,1,1.18.4,2.42,2.42,0,0,1,.76.73A2.8,2.8,0,0,1,105.54,51.62Zm-1.93,4V52a2.91,2.91,0,0,0-.06-.76.27.27,0,0,0-.24-.19.21.21,0,0,0-.24.13,2.36,2.36,0,0,0,0,.74v3.54a2.75,2.75,0,0,0,.06.72.29.29,0,0,0,.24.21.19.19,0,0,0,.24-.12,2.54,2.54,0,0,0,.06-.65" transform="translate(-2.56 -1.96)"/>
      <path style="fill:#171717" d="M110.9,51.71A6.06,6.06,0,0,1,111,53v3.3a7.46,7.46,0,0,1-.1,1.5,1.09,1.09,0,0,1-.45.66,1.14,1.14,0,0,1-.81.15,1.4,1.4,0,0,1-.7-.3,2.8,2.8,0,0,1-.59-.7v1.79l-2-.29,0-8.93,2.08.29,0,.69a1.71,1.71,0,0,1,.6-.55,1.29,1.29,0,0,1,.71-.1,1.49,1.49,0,0,1,.83.41A1.58,1.58,0,0,1,110.9,51.71ZM109,56.22V52.87a4.66,4.66,0,0,0,0-.89.27.27,0,0,0-.25-.18.21.21,0,0,0-.26.13,3.53,3.53,0,0,0-.06.85V56a3.84,3.84,0,0,0,.06.89.3.3,0,0,0,.26.22c.14,0,.22,0,.25-.13a4,4,0,0,0,0-.78" transform="translate(-2.56 -1.96)"/>
      <path style="fill:#171717" d="M116.26,52.46a6.84,6.84,0,0,1,.09,1.33v3.3a7.58,7.58,0,0,1-.1,1.51,1.14,1.14,0,0,1-.45.65,1.15,1.15,0,0,1-.81.15,1.4,1.4,0,0,1-.7-.3,2.63,2.63,0,0,1-.59-.7v1.79l-2-.28,0-8.94,2.08.3,0,.68a1.59,1.59,0,0,1,.6-.54,1.2,1.2,0,0,1,.71-.1,1.37,1.37,0,0,1,.82.41A1.49,1.49,0,0,1,116.26,52.46ZM114.32,57V53.62a4.73,4.73,0,0,0,0-.89.29.29,0,0,0-.25-.18.22.22,0,0,0-.27.14,4.37,4.37,0,0,0,0,.84v3.25a4,4,0,0,0,.06.89.31.31,0,0,0,.26.22.22.22,0,0,0,.25-.13,4.13,4.13,0,0,0,0-.78" transform="translate(-2.56 -1.96)"/>
      <polygon style="fill:#171717" points="114.45 48.05 116.55 48.34 116.55 49.59 114.45 49.29 114.45 48.05"/>
      <polygon style="fill:#171717" points="114.47 57.58 114.46 49.77 116.56 50.06 116.57 57.88 114.47 57.58"/>
      <path style="fill:#171717" d="M124.47,56.82l-2.64-.37v1.69a2.17,2.17,0,0,0,.06.7.3.3,0,0,0,.25.19.26.26,0,0,0,.31-.17,2.19,2.19,0,0,0,.08-.77v-1l1.93.27v.58a5.25,5.25,0,0,1-.08,1.1,1.85,1.85,0,0,1-.36.77,1.52,1.52,0,0,1-.72.57,2.49,2.49,0,0,1-1.12.07,3.28,3.28,0,0,1-1.13-.38,2.21,2.21,0,0,1-.77-.71,2.33,2.33,0,0,1-.38-.89,5.77,5.77,0,0,1-.12-1.34V54.81a4.16,4.16,0,0,1,.24-1.58,1.47,1.47,0,0,1,.77-.8A2.29,2.29,0,0,1,122,52.3a2.72,2.72,0,0,1,1.41.57,2.43,2.43,0,0,1,.79,1.12,6,6,0,0,1,.23,1.79Zm-2.64-2.21v.57l.59.08v-.57a3.39,3.39,0,0,0,0-.79.29.29,0,0,0-.23-.21c-.14,0-.23,0-.26.11a3.27,3.27,0,0,0,0,.81" transform="translate(-2.56 -1.96)"/>
      <path style="fill:#171717" d="M127.08,53a3.42,3.42,0,0,1,1.13.35,2.24,2.24,0,0,1,.72.63,2,2,0,0,1,.31.64,6,6,0,0,1,0,.87V56l-1.8-.25v-.43a3,3,0,0,0-.06-.7c0-.1-.12-.15-.27-.17a.23.23,0,0,0-.25.09.66.66,0,0,0-.09.39,2.24,2.24,0,0,0,.05.53.88.88,0,0,0,.26.41,5.91,5.91,0,0,0,.88.7,4,4,0,0,1,1.16,1.13,2.61,2.61,0,0,1,.28,1.33,3.44,3.44,0,0,1-.21,1.42,1.23,1.23,0,0,1-.7.64,2.33,2.33,0,0,1-1.2.1,3.14,3.14,0,0,1-1.33-.47,1.92,1.92,0,0,1-.76-.88A4.06,4.06,0,0,1,125,58.3v-.37l1.8.25v.5a2.86,2.86,0,0,0,.08.83.3.3,0,0,0,.26.22c.15,0,.25,0,.31-.08a1.14,1.14,0,0,0,.08-.53,1.47,1.47,0,0,0-.11-.71,11,11,0,0,0-1.19-1,3.38,3.38,0,0,1-1.09-1.21A3.06,3.06,0,0,1,125,55a3.4,3.4,0,0,1,.2-1.36,1.24,1.24,0,0,1,.72-.58A2.52,2.52,0,0,1,127.08,53Z" transform="translate(-2.56 -1.96)"/>
    </g>
  </g>
  <g className="cards-flat">
    <path style="fill:#232731" d="M356.31,217.31c3,.43,5.49,3.63,5.49,7.17l.16,83.21c0,3.54-2.44,6.07-5.47,5.64l-43.8-6.15c-3-.43-5.48-3.64-5.48-7.18l-.16-83.22c0-3.53,2.44-6.05,5.46-5.63Z" transform="translate(-2.56 -1.96)"/>
    <path style="fill:#232731" d="M276.31,206.06c3,.43,5.48,3.64,5.49,7.17l.16,83.22c0,3.54-2.44,6.06-5.47,5.63l-43.8-6.15c-3-.43-5.48-3.64-5.49-7.17l-.15-83.23c0-3.52,2.44-6.05,5.46-5.63Z" transform="translate(-2.56 -1.96)"/>
    <path style="fill:#232731" d="M196.32,194.76c3,.42,5.47,3.63,5.48,7.16l.15,83.23c0,3.54-2.43,6.05-5.45,5.63l-43.81-6.16c-3-.42-5.48-3.63-5.49-7.17l-.15-83.22c0-3.54,2.44-6,5.47-5.63Z" transform="translate(-2.56 -1.96)"/>
    <path style="fill:#232731" d="M116.31,183.49c3,.42,5.48,3.64,5.49,7.17l.15,83.22c0,3.54-2.44,6.05-5.46,5.63l-43.8-6.16c-3-.42-5.48-3.63-5.49-7.16L67.05,183c0-3.53,2.44-6.05,5.46-5.63Z" transform="translate(-2.56 -1.96)"/>
    <path style="fill:#232731" d="M356.31,109.31c3,.43,5.49,3.63,5.49,7.17l.16,83.21c0,3.54-2.44,6.07-5.47,5.64l-43.8-6.15c-3-.43-5.48-3.64-5.48-7.18l-.16-83.22c0-3.53,2.44-6,5.46-5.63Z" transform="translate(-2.56 -1.96)"/>
    <path style="fill:#232731" d="M276.31,98.06c3,.43,5.48,3.64,5.49,7.18l.16,83.21c0,3.54-2.44,6.06-5.47,5.63l-43.8-6.15c-3-.43-5.48-3.64-5.49-7.17l-.15-83.22c0-3.53,2.44-6.06,5.46-5.64Z" transform="translate(-2.56 -1.96)"/>
  </g>
  <g className="card">
    <g style="opacity:0.65">
      <path style="fill:#333950" d="M79.71,97.82a5.62,5.62,0,0,1,4.53,5.52L84.47,226A4,4,0,0,1,80,230.25L7.32,220a5.6,5.6,0,0,1-4.53-5.51L2.56,91.86a4,4,0,0,1,4.51-4.25Z" transform="translate(-2.56 -1.96)"/>
      <path style="fill:#1c1f2c" d="M87.88,101.36a5,5,0,0,0-.1-1v0a5.11,5.11,0,0,0-.25-.87,1.21,1.21,0,0,0-.09-.2,6,6,0,0,0-.26-.58l0-.07L87,98.35a6,6,0,0,0-.36-.52l-.2-.24c-.13-.15-.27-.29-.41-.43l-.23-.2a5.3,5.3,0,0,0-.54-.39l-.17-.12,0,0a4.67,4.67,0,0,0-.51-.23c-.1,0-.18-.1-.28-.13a4,4,0,0,0-.89-.22L10.72,85.63A3.81,3.81,0,0,0,8.31,86L4.66,88a3.89,3.89,0,0,1,2.41-.42L79.71,97.82a4.46,4.46,0,0,1,.89.22l.28.13a4.64,4.64,0,0,1,.55.26l.18.12q.27.18.54.39l.22.21a4.07,4.07,0,0,1,.41.42l.21.25c.13.16.24.33.36.51s.1.15.14.23a5.44,5.44,0,0,1,.3.65,1.76,1.76,0,0,1,.09.2,5.47,5.47,0,0,1,.26.9,5.89,5.89,0,0,1,.1,1L84.47,226a5.28,5.28,0,0,1-.09.9l0,.18a4.17,4.17,0,0,1-.25.78,1.42,1.42,0,0,1-.08.18c-.06.13-.13.25-.2.37l-.13.2a3.55,3.55,0,0,1-.23.31l-.15.17a2.68,2.68,0,0,1-.3.28,1.49,1.49,0,0,1-.14.12,2.7,2.7,0,0,1-.5.33l3.65-2a4.2,4.2,0,0,0,.49-.33l.15-.12.3-.29.14-.16a2.43,2.43,0,0,0,.24-.32,1.27,1.27,0,0,0,.13-.19c.07-.12.13-.24.19-.37a1,1,0,0,0,.08-.14.06.06,0,0,1,0,0,4.84,4.84,0,0,0,.24-.79,1.16,1.16,0,0,0,0-.18,5.19,5.19,0,0,0,.08-.9Z" transform="translate(-2.56 -1.96)"/>
    </g>
    <path className="trophy-icon" style="fill:#f7f700" d="M65.23,157.13a.26.26,0,0,0-.22-.28.19.19,0,0,0-.17.06,26.73,26.73,0,0,1-3.73,3.79,25.83,25.83,0,0,0,.42-4.55c0-.66,0-1.32-.09-2,2.22-2.4,2.14-6.67.92-10.09a.25.25,0,0,0-.19-.17.19.19,0,0,0-.22.16,32.72,32.72,0,0,1-1.34,5.15,29.33,29.33,0,0,0-2.78-6.83,1.23,1.23,0,0,0-.85-.61.89.89,0,0,0-1,1,1.26,1.26,0,0,0,.18.63,26.71,26.71,0,0,1,2.17,5,39.87,39.87,0,0,1-3.73-4.56.28.28,0,0,0-.16-.1.19.19,0,0,0-.22.23c.42,3.39,2.16,7.21,5.1,9a23.66,23.66,0,0,1,.2,2.94,22.38,22.38,0,0,1-.55,5,41,41,0,0,1-1-5.74.27.27,0,0,0-.22-.24.18.18,0,0,0-.19.1,11,11,0,0,0,.07,10,18,18,0,0,1-3.9,5.43,35.58,35.58,0,0,1,1.06-5.64.27.27,0,0,0-.21-.33.16.16,0,0,0-.14,0,9.45,9.45,0,0,0-3.6,8.14,15.29,15.29,0,0,1-2.91,1.4l-.13-.6a1.08,1.08,0,0,0-.86-.84L42.82,172l-1.54-8.72a6.47,6.47,0,0,0,4.3-2.19c3.61-.08,6.39-3.36,6.38-7.81V149.2a.83.83,0,0,0-.67-.82l-3.82-.54V146l1.4.2a.56.56,0,0,0,.64-.6v-2.25a.8.8,0,0,0-.64-.79l-18.57-2.61a.57.57,0,0,0-.64.61v2.25a.79.79,0,0,0,.64.78l1.39.19v1.88l-3.82-.54a.6.6,0,0,0-.68.64v4.06c0,4.45,2.8,8.51,6.41,9.61a9.47,9.47,0,0,0,4.31,3.4l-1.5,8.29-4.06-.58a.77.77,0,0,0-.86.61l-.13.56a23.72,23.72,0,0,1-2.91-2.21c.35-3.18-1.41-6.75-3.64-9.17a.23.23,0,0,0-.14-.08c-.13,0-.25.1-.21.28a40,40,0,0,1,1.08,5.94,26.32,26.32,0,0,1-3.91-6.53c1.8-2.62,1.41-6.73,0-10a.25.25,0,0,0-.2-.15.17.17,0,0,0-.21.17,36.53,36.53,0,0,1-1,5.46,23.91,23.91,0,0,1-.57-5.15,20.86,20.86,0,0,1,.18-2.89c2.94-.92,4.68-4.25,5.07-7.52a.26.26,0,0,0-.21-.3.17.17,0,0,0-.16.06,28.77,28.77,0,0,1-3.72,3.52A19.37,19.37,0,0,1,23,138.71a1.23,1.23,0,0,0-.85-1.82.88.88,0,0,0-.85.37,21,21,0,0,0-2.75,6.06,40.23,40.23,0,0,1-1.37-5.53.28.28,0,0,0-.22-.23.18.18,0,0,0-.19.12c-1.2,3.08-1.28,7.33,1,10.35-.05.64-.08,1.29-.08,1.95a27.87,27.87,0,0,0,.43,4.67,40.88,40.88,0,0,1-3.75-4.84.22.22,0,0,0-.16-.11.19.19,0,0,0-.22.22c.33,3.6,2.15,7.77,5.4,9.44a28.63,28.63,0,0,0,3.15,6.22,38,38,0,0,1-5.2-2.71.21.21,0,0,0-.19.33c1.64,3,4.51,5.76,7.58,6.19a6.54,6.54,0,0,0,.89.06,26.94,26.94,0,0,0,5.34,4.34l-.1.46a1.06,1.06,0,0,0,.86,1.25l15.93,2.24a.78.78,0,0,0,.87-.65,1.09,1.09,0,0,0,0-.36l-.1-.49a18.41,18.41,0,0,0,5.32-2.84,5.77,5.77,0,0,0,.9.19c3.06.43,5.92-1.56,7.55-4.06.1-.16,0-.36-.27-.38a27.35,27.35,0,0,1-5.12,1.25,20.31,20.31,0,0,0,3.14-5.35C63.11,164.3,64.91,160.64,65.23,157.13Zm-17.76-1.35v-5.94l2.81.39v2.4A6.33,6.33,0,0,1,47,158.54,8.45,8.45,0,0,0,47.47,155.78Zm-18.6-6.16v-2.4l2.81.4v5.94a9.7,9.7,0,0,0,.45,2.89A8.74,8.74,0,0,1,28.87,149.62Z" transform="translate(-2.56 -1.96)"/>
  </g>
  <g className="card">
    <g style="opacity:0.65">
      <path style="fill:#333950" d="M138.74,160.9a5.63,5.63,0,0,1,4.53,5.52l.23,122.67a4,4,0,0,1-4.51,4.24L66.35,283.12a5.6,5.6,0,0,1-4.53-5.51l-.23-122.67a4,4,0,0,1,4.51-4.25Z" transform="translate(-2.56 -1.96)"/>
      <path style="fill:#1c1f2c" d="M146.92,164.44a5.9,5.9,0,0,0-.11-1v0a5.11,5.11,0,0,0-.25-.87,1.76,1.76,0,0,0-.09-.2c-.08-.19-.16-.39-.25-.57a.35.35,0,0,1-.05-.08l-.15-.23a6,6,0,0,0-.36-.52l-.2-.24a5.44,5.44,0,0,0-.41-.42l-.23-.21a6.55,6.55,0,0,0-.53-.39l-.18-.12,0,0a4.74,4.74,0,0,0-.51-.24l-.28-.13a4.63,4.63,0,0,0-.89-.22L69.75,148.71a4,4,0,0,0-2.41.41l-3.65,2a3.89,3.89,0,0,1,2.41-.42l72.64,10.21a5.26,5.26,0,0,1,.89.22l.28.13a5.77,5.77,0,0,1,.56.27l.17.11a5,5,0,0,1,.54.4,2.09,2.09,0,0,1,.22.2,5.51,5.51,0,0,1,.41.43l.21.24c.13.16.24.34.36.52s.1.15.14.23a6.31,6.31,0,0,1,.31.64,1.76,1.76,0,0,0,.09.2,7.55,7.55,0,0,1,.25.9,5.89,5.89,0,0,1,.1,1l.23,122.67a5.28,5.28,0,0,1-.09.9l0,.18a4,4,0,0,1-.25.78,1,1,0,0,1-.08.18c-.06.13-.13.26-.2.38l-.12.19-.24.31-.15.17a2.68,2.68,0,0,1-.3.28l-.14.13a4.32,4.32,0,0,1-.5.33l3.65-2a2.63,2.63,0,0,0,.49-.33.88.88,0,0,0,.15-.12l.3-.28a2.09,2.09,0,0,0,.14-.17,3.24,3.24,0,0,0,.24-.31l.13-.2.2-.37.07-.14a.06.06,0,0,1,0,0,5,5,0,0,0,.24-.78,1.16,1.16,0,0,0,0-.18,5.29,5.29,0,0,0,.08-.9Z" transform="translate(-2.56 -1.96)"/>
    </g>
    <path className="trophy-icon" style="fill:#f7f700" d="M124.26,220.21a.27.27,0,0,0-.22-.28.19.19,0,0,0-.17.06,26.21,26.21,0,0,1-3.73,3.79,25.83,25.83,0,0,0,.42-4.55c0-.66,0-1.31-.09-2,2.23-2.39,2.14-6.67.92-10.09a.23.23,0,0,0-.19-.17.2.2,0,0,0-.22.17,32.59,32.59,0,0,1-1.34,5.14,29.33,29.33,0,0,0-2.78-6.83,1.26,1.26,0,0,0-.85-.61.89.89,0,0,0-1,.95,1.23,1.23,0,0,0,.18.63,26.52,26.52,0,0,1,2.17,5,42.87,42.87,0,0,1-3.73-4.56.26.26,0,0,0-.16-.11.2.2,0,0,0-.22.23c.42,3.39,2.16,7.21,5.1,9a22.11,22.11,0,0,1,.2,2.94,22.47,22.47,0,0,1-.55,5,41.36,41.36,0,0,1-1-5.75.27.27,0,0,0-.22-.24.16.16,0,0,0-.18.1,11,11,0,0,0,.06,10,18,18,0,0,1-3.9,5.43,35.79,35.79,0,0,1,1.06-5.64.27.27,0,0,0-.21-.33.2.2,0,0,0-.14,0,9.46,9.46,0,0,0-3.6,8.15,15.88,15.88,0,0,1-2.91,1.39l-.13-.59a1.06,1.06,0,0,0-.86-.85l-4.06-.57-1.54-8.71a6.57,6.57,0,0,0,4.31-2.2c3.61-.08,6.38-3.36,6.37-7.81v-4.06a.83.83,0,0,0-.67-.82l-3.82-.54v-1.87l1.4.19a.56.56,0,0,0,.64-.6v-2.25a.8.8,0,0,0-.64-.79L89.3,203a.57.57,0,0,0-.64.61v2.25a.79.79,0,0,0,.64.78l1.39.2v1.87l-3.82-.53a.59.59,0,0,0-.68.63v4.06c0,4.45,2.8,8.51,6.41,9.61a9.49,9.49,0,0,0,4.32,3.4l-1.51,8.29-4.06-.57a.75.75,0,0,0-.86.6l-.13.57a24.85,24.85,0,0,1-2.91-2.22c.35-3.18-1.41-6.75-3.64-9.17a.21.21,0,0,0-.14-.07.19.19,0,0,0-.2.27,41.32,41.32,0,0,1,1.07,5.94A26.14,26.14,0,0,1,80.66,223c1.8-2.62,1.41-6.73,0-9.95a.25.25,0,0,0-.19-.16.19.19,0,0,0-.22.18,35.4,35.4,0,0,1-1,5.45,23.84,23.84,0,0,1-.57-5.15,24.77,24.77,0,0,1,.18-2.89c2.94-.91,4.68-4.25,5.08-7.52a.26.26,0,0,0-.22-.29.16.16,0,0,0-.16,0,27.5,27.5,0,0,1-3.72,3.52A19.37,19.37,0,0,1,82,201.79a1.23,1.23,0,0,0-.85-1.82.87.87,0,0,0-.85.38,21,21,0,0,0-2.75,6.05,40.23,40.23,0,0,1-1.37-5.53.25.25,0,0,0-.22-.22.17.17,0,0,0-.19.11c-1.2,3.08-1.28,7.33,1,10.35,0,.65-.08,1.29-.08,2a27.85,27.85,0,0,0,.43,4.66,42,42,0,0,1-3.75-4.84.25.25,0,0,0-.16-.11A.2.2,0,0,0,73,213c.34,3.6,2.15,7.77,5.4,9.44a29.39,29.39,0,0,0,3.15,6.23,38.1,38.1,0,0,1-5.2-2.72.21.21,0,0,0-.19.33c1.65,3,4.51,5.76,7.58,6.19a4.44,4.44,0,0,0,.89.06,27.34,27.34,0,0,0,5.34,4.35l-.1.45a1.09,1.09,0,0,0,0,.36,1.07,1.07,0,0,0,.87.89l15.93,2.24a.76.76,0,0,0,.87-.65,1.11,1.11,0,0,0,0-.36l-.1-.48a18.2,18.2,0,0,0,5.32-2.85,5.77,5.77,0,0,0,.9.19c3.06.44,5.92-1.55,7.55-4.06.1-.15,0-.36-.27-.37a26.57,26.57,0,0,1-5.12,1.24,20,20,0,0,0,3.14-5.34C122.14,227.38,124,223.72,124.26,220.21Zm-17.76-1.35v-5.94l2.81.39v2.4a6.36,6.36,0,0,1-3.24,5.92A8.83,8.83,0,0,0,106.5,218.86ZM87.9,212.7v-2.39l2.81.39v5.94a9.65,9.65,0,0,0,.45,2.89A8.73,8.73,0,0,1,87.9,212.7Z" transform="translate(-2.56 -1.96)"/>
  </g>
</svg>