<svg xmlns="http://www.w3.org/2000/svg" viewBox="0 0 512 512">
  <path d="M1369.83,249,1567.12,51.75a30.31,30.31,0,0,0,0-42.87h0a30.31,30.31,0,0,0-42.87,0L1327,206.17a9.83,9.83,0,0,1-13.92,0L1115.75,8.88a30.31,30.31,0,0,0-42.87,0h0a30.31,30.31,0,0,0,0,42.87L1270.17,249a9.83,9.83,0,0,1,0,13.92L1072.88,460.25a30.31,30.31,0,0,0,0,42.87h0a30.31,30.31,0,0,0,42.87,0L1313,305.83a9.83,9.83,0,0,1,13.92,0l197.29,197.29a30.31,30.31,0,0,0,42.87,0h0a30.31,30.31,0,0,0,0-42.87L1369.83,263A9.83,9.83,0,0,1,1369.83,249Z" transform="translate(-1064)"/>
</svg>